<svg id="svg" version="1.1" xmlns="http://www.w3.org/2000/svg" xmlns:xlink="http://www.w3.org/1999/xlink" width="400" height="400" viewBox="0, 0, 400,400"><g id="svgg"><path id="path4" d="M191.107 0.230 C 71.228 5.679,-17.311 115.323,2.815 233.405 C 18.175 323.530,90.388 390.327,182.378 399.502 C 188.118 400.075,212.106 400.076,217.838 399.503 C 315.884 389.716,389.716 315.884,399.503 217.838 C 400.076 212.106,400.075 188.118,399.502 182.378 C 388.744 74.517,298.184 -4.637,191.107 0.230 M211.243 7.143 C 338.166 15.080,423.136 139.661,383.851 260.216 C 349.973 364.179,235.356 419.564,133.066 381.400 C 25.248 341.172,-23.963 217.202,27.027 114.270 C 61.304 45.076,134.759 2.360,211.243 7.143 M122.325 301.459 L 122.270 371.351 124.084 372.164 C 134.553 376.856,148.396 381.372,159.946 383.863 L 162.378 384.387 162.378 307.978 L 162.378 231.568 142.379 231.568 L 122.379 231.568 122.325 301.459 M78.919 290.479 L 78.919 343.984 81.351 345.977 C 91.403 354.211,104.180 362.455,116.311 368.534 L 119.135 369.949 119.135 303.461 L 119.135 236.973 99.027 236.973 L 78.919 236.973 78.919 290.479 M165.622 320.410 L 165.622 385.037 167.041 385.284 C 172.741 386.276,179.470 387.136,185.838 387.684 C 187.384 387.817,192.516 387.979,197.243 388.045 L 205.838 388.164 205.838 321.974 L 205.838 255.784 185.730 255.784 L 165.622 255.784 165.622 320.410 M35.623 279.189 L 35.568 291.135 36.204 292.324 C 41.117 301.497,50.323 314.540,58.436 323.821 C 63.492 329.605,73.976 340.131,75.585 341.038 C 75.849 341.187,75.892 336.089,75.892 304.227 L 75.892 267.243 55.786 267.243 L 35.679 267.243 35.623 279.189 M208.865 338.595 L 208.865 387.892 210.324 387.891 C 217.659 387.884,233.800 385.503,245.027 382.770 L 249.081 381.783 249.081 335.540 L 249.081 289.297 228.973 289.297 L 208.865 289.297 208.865 338.595 M252.324 346.486 C 252.324 365.335,252.404 380.757,252.500 380.757 C 253.382 380.757,264.855 376.825,270.162 374.705 C 276.464 372.187,285.936 367.700,290.811 364.924 L 292.432 364.000 292.378 338.108 L 292.323 312.216 272.323 312.216 L 252.324 312.216 252.324 346.486 M295.568 341.966 L 295.568 362.203 296.595 361.608 C 308.051 354.970,321.114 344.895,331.724 334.514 L 335.784 330.541 335.784 326.135 L 335.784 321.730 315.676 321.730 L 295.568 321.730 295.568 341.966 " stroke="none" fill="#444c74" fill-rule="evenodd"></path><path id="path0" d="M188.432 7.161 C 86.122 13.703,6.906 97.976,6.920 200.262 C 6.936 318.810,114.471 410.153,231.351 390.899 C 347.561 371.756,419.777 254.255,384.425 141.838 C 357.980 57.744,276.200 1.549,188.432 7.161 M233.424 16.961 C 238.128 19.083,238.518 26.260,234.072 28.866 C 233.298 29.319,233.052 29.367,232.421 29.186 C 231.474 28.914,229.507 28.912,228.569 29.181 C 227.172 29.582,224.848 27.694,224.124 25.571 C 222.100 19.631,227.750 14.401,233.424 16.961 M218.838 19.357 C 221.628 20.308,223.324 23.719,222.508 26.737 C 220.998 32.314,212.705 32.622,210.894 27.168 C 209.217 22.118,213.778 17.633,218.838 19.357 M190.215 20.013 C 192.866 21.334,192.905 25.357,190.279 26.745 C 187.209 28.369,183.745 25.627,184.644 22.286 C 185.291 19.886,187.857 18.838,190.215 20.013 M204.408 21.063 C 210.347 22.850,208.455 31.927,202.276 31.290 C 199.462 30.999,197.622 29.006,197.622 26.248 C 197.622 22.357,200.754 19.963,204.408 21.063 M142.163 26.088 C 145.870 27.351,146.973 32.714,144.114 35.573 C 141.255 38.432,135.891 37.329,134.628 33.623 C 132.944 28.680,137.220 24.404,142.163 26.088 M262.872 26.930 C 266.416 28.411,266.821 33.931,263.534 35.957 C 259.762 38.282,255.244 35.478,255.612 31.040 C 255.891 27.673,259.610 25.568,262.872 26.930 M162.208 27.888 C 169.205 30.507,167.578 40.987,160.100 41.467 C 155.628 41.754,152.540 38.780,152.573 34.221 C 152.609 29.378,157.537 26.138,162.208 27.888 M234.028 30.025 C 239.505 32.721,239.331 40.815,233.740 43.438 C 228.633 45.833,223.243 42.347,223.243 36.649 C 223.243 30.754,228.700 27.402,234.028 30.025 M176.389 29.869 C 178.014 30.656,178.593 32.652,177.741 34.528 C 176.670 36.888,172.741 36.901,171.673 34.548 C 170.189 31.277,173.175 28.314,176.389 29.869 M245.690 30.151 C 247.834 30.916,248.807 33.403,247.808 35.568 C 246.014 39.455,240.226 38.134,240.226 33.838 C 240.226 31.617,241.990 29.857,244.216 29.857 C 244.573 29.857,245.236 29.989,245.690 30.151 M128.847 31.130 C 131.874 31.998,133.286 35.732,131.720 38.729 C 129.600 42.788,123.239 41.895,122.158 37.386 C 121.188 33.345,124.799 29.969,128.847 31.130 M218.462 31.793 C 223.893 33.825,223.862 42.289,218.416 44.334 C 213.901 46.028,209.360 43.185,209.115 38.510 C 208.841 33.297,213.512 29.941,218.462 31.793 M275.027 35.928 C 280.385 38.229,279.821 46.504,274.194 48.139 C 267.810 49.995,263.034 42.371,267.438 37.355 C 269.121 35.438,272.436 34.815,275.027 35.928 M192.649 39.032 C 196.940 41.207,196.307 48.001,191.692 49.293 C 187.877 50.361,184.671 48.057,184.476 44.108 C 184.261 39.746,188.663 37.011,192.649 39.032 M258.226 40.274 C 262.461 42.055,262.391 48.732,258.118 50.601 C 254.127 52.347,249.950 49.690,249.950 45.405 C 249.950 41.040,254.029 38.511,258.226 40.274 M174.720 42.448 C 177.799 44.076,177.485 49.112,174.220 50.476 C 171.033 51.808,167.841 49.522,168.037 46.049 C 168.228 42.661,171.643 40.821,174.720 42.448 M210.676 43.311 C 217.390 46.385,215.089 56.508,207.671 56.534 C 199.704 56.562,197.939 45.680,205.473 42.982 C 206.955 42.452,209.094 42.587,210.676 43.311 M286.549 43.352 C 294.191 47.130,290.171 59.072,281.780 57.521 C 276.580 56.560,273.519 49.959,276.829 46.846 C 277.356 46.351,278.041 45.439,278.353 44.819 C 279.485 42.562,283.500 41.843,286.549 43.352 M145.375 43.870 C 151.753 47.003,149.715 56.651,142.595 57.031 C 134.536 57.460,132.289 46.339,139.866 43.531 C 141.134 43.062,144.101 43.244,145.375 43.870 M298.801 44.752 C 301.602 46.181,301.579 50.716,298.764 52.079 C 295.813 53.507,292.561 51.625,292.545 48.480 C 292.529 45.248,295.870 43.257,298.801 44.752 M245.302 46.540 C 250.461 49.218,247.803 57.391,242.053 56.529 C 236.791 55.740,235.936 48.220,240.895 46.337 C 241.838 45.979,244.453 46.099,245.302 46.540 M114.555 48.737 C 117.715 50.340,118.236 55.249,115.487 57.527 C 113.196 59.426,109.132 58.985,107.614 56.673 C 104.396 51.772,109.356 46.100,114.555 48.737 M128.239 49.237 C 131.274 50.580,132.668 54.475,131.259 57.674 C 129.171 62.410,121.876 62.446,119.813 57.730 C 117.381 52.171,122.716 46.794,128.239 49.237 M223.355 49.568 C 225.103 50.454,225.766 52.666,224.826 54.482 C 223.519 57.004,219.709 57.008,218.432 54.490 C 217.167 51.994,218.885 49.081,221.622 49.081 C 222.047 49.081,222.827 49.300,223.355 49.568 M272.606 51.669 C 277.757 54.420,277.491 62.128,272.162 64.557 C 267.279 66.783,261.838 63.299,261.838 57.946 C 261.838 52.502,267.732 49.066,272.606 51.669 M156.543 53.243 C 160.316 55.811,157.438 61.634,153.196 60.014 C 150.738 59.075,149.945 56.057,151.603 53.950 C 152.592 52.693,155.188 52.322,156.543 53.243 M93.567 53.738 C 97.910 55.553,96.105 62.104,91.415 61.549 C 86.344 60.948,86.741 53.436,91.845 53.410 C 92.354 53.408,93.129 53.555,93.567 53.738 M308.546 54.401 C 311.142 55.811,312.038 59.205,310.577 62.088 C 308.677 65.837,302.561 65.842,300.672 62.095 C 298.013 56.823,303.370 51.589,308.546 54.401 M254.909 57.023 C 256.970 58.077,258.268 60.313,258.268 62.811 C 258.268 71.296,245.838 71.606,245.245 63.135 C 244.887 58.032,250.250 54.640,254.909 57.023 M191.805 57.897 C 198.168 61.025,195.870 70.598,188.757 70.593 C 184.624 70.591,182.163 68.089,182.165 63.892 C 182.168 58.860,187.287 55.675,191.805 57.897 M142.025 58.136 C 149.527 60.471,148.774 71.450,141.015 72.857 C 136.074 73.753,132.216 70.438,132.216 65.297 C 132.216 59.853,136.797 56.509,142.025 58.136 M176.619 58.289 C 179.702 59.577,181.012 63.546,179.352 66.567 C 177.110 70.645,170.933 70.469,168.948 66.270 C 166.607 61.320,171.554 56.173,176.619 58.289 M107.367 60.190 C 109.431 61.152,110.670 63.458,110.420 65.875 C 109.686 72.994,99.180 72.421,99.180 65.261 C 99.180 60.974,103.415 58.350,107.367 60.190 M287.268 60.738 C 290.470 62.192,290.498 67.256,287.312 68.844 C 282.787 71.099,278.560 65.985,281.517 61.833 C 282.530 60.411,285.361 59.872,287.268 60.738 M163.866 64.985 C 168.736 66.432,168.914 73.656,164.120 75.347 C 161.437 76.294,158.505 75.208,157.320 72.828 C 155.070 68.313,159.042 63.553,163.866 64.985 M235.607 65.152 C 240.795 67.064,240.680 74.862,235.441 76.418 C 229.731 78.114,225.414 72.065,228.789 67.099 C 230.035 65.267,233.351 64.320,235.607 65.152 M128.048 65.701 C 132.537 67.638,133.737 74.032,130.263 77.506 C 126.838 80.931,119.632 79.827,119.438 75.848 C 119.388 74.830,119.184 74.123,118.595 72.932 C 116.274 68.235,122.638 63.367,128.048 65.701 M219.391 65.695 C 221.986 67.020,222.655 70.778,220.693 73.013 C 218.323 75.712,213.484 74.760,212.554 71.411 C 211.365 67.131,215.474 63.696,219.391 65.695 M95.711 66.080 C 98.807 68.009,98.807 72.964,95.711 74.893 C 90.940 77.867,85.486 72.336,88.454 67.533 C 89.809 65.340,93.377 64.625,95.711 66.080 M326.175 66.152 C 331.830 68.936,331.303 77.649,325.356 79.708 C 320.235 81.481,315.568 78.166,315.568 72.757 C 315.568 66.927,320.946 63.578,326.175 66.152 M300.024 66.049 C 303.362 67.040,305.069 71.284,303.443 74.547 C 301.151 79.146,293.887 78.560,292.431 73.659 C 290.983 68.781,295.152 64.602,300.024 66.049 M204.667 66.293 C 206.188 67.015,206.849 69.435,205.976 71.091 C 204.812 73.299,201.115 73.191,199.934 70.915 C 198.397 67.952,201.591 64.834,204.667 66.293 M256.928 69.871 C 260.306 71.590,261.609 76.181,259.779 79.920 C 257.352 84.881,249.246 84.894,246.826 79.940 C 244.564 75.310,247.162 69.500,251.459 69.576 C 252.114 69.587,253.086 69.477,253.622 69.330 C 254.697 69.036,255.566 69.178,256.928 69.871 M183.621 69.621 C 189.431 71.415,189.982 79.830,184.467 82.533 C 181.815 83.833,177.718 83.045,176.042 80.911 C 171.517 75.154,176.672 67.474,183.621 69.621 M115.069 69.955 C 119.385 71.434,120.644 77.595,117.323 80.980 C 113.013 85.371,105.730 82.374,105.730 76.210 C 105.730 71.306,110.224 68.295,115.069 69.955 M81.474 70.832 C 83.405 71.794,84.244 73.920,83.587 76.182 C 82.494 79.941,76.974 80.421,75.334 76.898 C 73.391 72.724,77.374 68.789,81.474 70.832 M278.610 73.274 C 282.372 74.983,282.050 81.160,278.137 82.329 C 274.622 83.379,271.586 81.274,271.572 77.777 C 271.558 74.062,275.206 71.728,278.610 73.274 M311.778 74.937 C 319.198 77.141,318.178 88.053,310.465 88.978 C 306.327 89.474,302.803 86.499,302.535 82.282 C 302.206 77.095,306.787 73.455,311.778 74.937 M145.127 77.012 C 147.322 78.225,148.148 81.250,146.938 83.639 C 145.089 87.286,139.154 86.757,137.981 82.841 C 136.673 78.476,141.158 74.817,145.127 77.012 M172.220 77.599 C 175.174 78.902,176.734 82.186,175.915 85.381 C 174.044 92.686,163.458 91.916,162.678 84.417 C 162.137 79.221,167.388 75.469,172.220 77.599 M158.428 78.401 C 161.292 79.783,162.376 83.393,160.847 86.454 C 158.774 90.602,152.470 90.613,150.371 86.473 C 147.679 81.160,153.032 75.796,158.428 78.401 M337.775 78.607 C 341.705 79.946,342.041 85.677,338.303 87.613 C 337.139 88.216,334.934 88.254,333.838 87.690 C 328.301 84.842,331.875 76.596,337.775 78.607 M298.775 79.460 C 304.737 82.709,302.302 91.757,295.459 91.778 C 289.495 91.797,286.579 84.564,290.872 80.398 C 292.750 78.576,296.365 78.147,298.775 79.460 M264.815 80.983 C 269.106 82.776,267.847 89.514,263.221 89.514 C 259.285 89.514,257.256 85.382,259.626 82.193 C 260.661 80.800,263.046 80.244,264.815 80.983 M244.757 81.542 C 247.962 83.053,249.604 86.860,248.576 90.396 C 248.030 92.274,248.003 92.292,245.081 92.649 C 243.654 92.823,241.194 93.177,239.615 93.436 L 236.743 93.906 236.130 93.318 C 230.394 87.822,237.500 78.122,244.757 81.542 M230.859 81.694 C 233.003 82.800,234.539 84.972,234.140 86.332 C 234.027 86.714,233.958 87.805,233.985 88.757 C 234.158 94.871,224.903 96.444,222.073 90.781 C 219.217 85.066,225.267 78.808,230.859 81.694 M216.973 82.029 C 221.120 83.989,221.252 90.286,217.189 92.377 C 213.243 94.407,208.757 91.676,208.757 87.243 C 208.757 82.836,212.993 80.148,216.973 82.029 M110.314 83.054 C 117.152 84.503,118.156 93.859,111.794 96.843 C 109.047 98.131,105.389 97.429,103.356 95.223 C 98.460 89.912,103.239 81.554,110.314 83.054 M200.412 83.237 C 202.364 83.797,203.676 85.600,203.676 87.725 C 203.676 93.880,194.722 94.227,194.412 88.084 C 194.232 84.532,197.034 82.269,200.412 83.237 M92.382 84.107 C 95.229 85.445,96.560 88.823,95.495 92.007 C 93.843 96.950,86.590 97.440,84.162 92.773 C 81.346 87.359,86.882 81.522,92.382 84.107 M326.332 85.404 C 327.797 86.408,328.508 88.491,328.013 90.329 C 326.716 95.146,319.351 94.085,319.351 89.081 C 319.351 85.613,323.471 83.443,326.332 85.404 M188.011 86.740 C 190.264 88.285,190.027 91.999,187.599 93.174 C 184.281 94.780,181.021 91.671,182.403 88.218 C 183.200 86.225,186.131 85.453,188.011 86.740 M133.167 87.774 C 136.787 89.631,136.334 95.281,132.461 96.567 C 128.252 97.965,124.629 93.756,126.613 89.774 C 127.785 87.422,130.728 86.524,133.167 87.774 M68.225 89.842 C 71.231 91.701,71.040 96.569,67.896 98.216 C 63.819 100.353,59.462 96.732,60.787 92.308 C 61.668 89.369,65.439 88.119,68.225 89.842 M148.046 90.856 C 151.146 92.194,152.576 95.543,151.453 98.838 C 149.720 103.926,141.740 103.926,140.006 98.838 C 138.254 93.695,143.213 88.772,148.046 90.856 M173.999 92.208 C 178.123 94.062,179.595 99.434,177.062 103.382 C 174.294 107.695,167.111 107.695,164.344 103.382 C 160.139 96.830,166.895 89.012,173.999 92.208 M335.892 92.840 C 339.958 94.762,340.175 100.852,336.253 102.986 C 331.519 105.563,326.177 101.162,327.866 96.077 C 328.930 92.874,332.726 91.343,335.892 92.840 M275.781 94.817 C 302.294 96.826,326.337 104.067,366.700 122.198 L 372.643 124.867 373.129 125.890 C 375.009 129.850,378.842 140.533,380.873 147.473 C 390.343 179.831,390.879 214.694,382.408 247.243 C 381.096 252.284,380.886 252.973,380.657 252.973 C 379.782 252.973,367.160 250.068,360.359 248.301 C 331.563 240.820,311.113 233.054,264.234 211.797 C 234.373 198.257,222.624 193.403,207.602 188.405 C 163.393 173.693,127.504 174.741,81.103 192.099 C 69.072 196.600,59.778 200.571,35.027 211.784 C 15.278 220.732,13.312 221.600,13.158 221.441 C 12.690 220.956,11.897 207.706,11.894 200.324 C 11.891 190.969,13.173 173.782,13.930 173.024 C 14.006 172.949,17.056 172.384,20.709 171.768 C 61.701 164.858,90.918 155.105,147.458 129.460 C 179.843 114.772,191.496 109.933,206.703 104.857 C 231.667 96.525,254.511 93.205,275.781 94.817 M195.066 96.118 C 197.708 97.018,199.134 100.515,197.969 103.240 C 196.352 107.026,190.293 107.220,188.462 103.545 C 186.243 99.093,190.324 94.502,195.066 96.118 M348.216 98.431 C 352.305 100.544,353.228 106.283,349.986 109.432 C 348.415 110.957,348.705 110.983,343.371 108.853 L 338.599 106.948 338.440 106.177 C 337.241 100.392,343.073 95.772,348.216 98.431 M78.944 98.960 C 81.037 100.139,82.349 102.781,82.038 105.189 C 81.091 112.518,70.582 112.585,69.511 105.269 C 68.763 100.164,74.395 96.397,78.944 98.960 M130.576 100.447 C 132.951 101.152,134.394 103.247,134.362 105.946 C 134.277 113.094,123.601 113.301,123.276 106.161 C 123.082 101.883,126.473 99.228,130.576 100.447 M160.216 101.538 C 166.255 104.271,165.709 113.243,159.383 115.242 C 153.653 117.052,148.449 112.169,149.929 106.374 C 151.088 101.836,155.890 99.579,160.216 101.538 M102.919 102.017 C 104.727 103.329,104.552 106.624,102.627 107.538 C 99.722 108.916,96.802 106.205,98.030 103.268 C 98.739 101.571,101.376 100.896,102.919 102.017 M92.130 103.524 C 99.001 106.514,97.145 116.964,89.636 117.567 C 81.187 118.245,78.591 106.290,86.544 103.327 C 87.993 102.788,90.652 102.881,92.130 103.524 M50.360 104.935 C 53.149 106.781,52.906 111.371,49.939 112.930 C 45.870 115.067,41.585 111.113,43.362 106.861 C 44.420 104.329,47.968 103.352,50.360 104.935 M116.106 108.323 C 117.939 109.259,118.800 110.927,118.667 113.287 C 118.304 119.696,108.735 119.293,108.666 112.865 C 108.624 108.925,112.567 106.518,116.106 108.323 M76.584 111.373 C 81.340 112.359,83.635 117.946,80.999 122.121 C 78.069 126.762,70.463 126.033,68.538 120.927 C 66.498 115.514,70.966 110.207,76.584 111.373 M63.822 112.007 C 69.011 113.448,69.578 121.493,64.651 123.763 C 63.241 124.412,60.354 124.399,59.110 123.737 C 52.268 120.097,56.352 109.932,63.822 112.007 M144.023 113.339 C 150.920 116.496,148.584 126.811,140.973 126.811 C 136.470 126.810,133.946 124.287,133.946 119.784 C 133.946 114.260,138.990 111.034,144.023 113.339 M101.961 116.859 C 105.724 117.984,106.290 123.692,102.815 125.487 C 100.461 126.704,97.530 125.888,96.386 123.698 C 94.304 119.712,97.674 115.578,101.961 116.859 M42.378 118.721 C 45.603 120.183,46.444 124.322,44.066 127.023 C 41.780 129.621,37.214 129.110,35.631 126.080 C 33.259 121.539,37.762 116.628,42.378 118.721 M128.565 121.510 C 130.902 122.660,131.951 124.456,131.977 127.351 C 132.058 136.151,119.192 136.540,118.747 127.751 C 118.471 122.310,123.587 119.059,128.565 121.510 M89.147 122.569 C 91.456 123.996,91.345 128.265,88.969 129.393 C 85.957 130.822,83.030 129.139,83.028 125.975 C 83.026 122.724,86.378 120.857,89.147 122.569 M69.637 125.516 C 75.385 127.477,76.046 136.269,70.643 138.903 C 65.315 141.500,59.783 138.201,59.794 132.432 C 59.805 127.228,64.658 123.817,69.637 125.516 M114.054 126.786 C 120.026 129.614,117.887 138.595,111.243 138.595 C 104.731 138.595,102.744 129.542,108.649 126.780 C 110.173 126.067,112.541 126.070,114.054 126.786 M39.951 132.222 C 45.165 133.770,45.694 141.171,40.757 143.488 C 38.290 144.646,34.730 143.821,33.327 141.766 C 29.900 136.750,34.224 130.521,39.951 132.222 M56.790 132.430 C 58.390 132.905,59.537 133.819,59.851 134.868 C 59.995 135.349,60.464 136.253,60.894 136.877 C 64.087 141.519,57.713 147.870,52.018 145.722 C 43.569 142.534,48.121 129.856,56.790 132.430 M103.676 134.864 C 106.583 136.375,107.749 140.065,106.261 143.045 L 105.622 144.324 102.895 145.376 L 100.169 146.427 98.998 146.086 C 93.764 144.565,93.425 136.739,98.504 134.693 C 99.909 134.127,102.416 134.210,103.676 134.864 M82.134 138.729 C 85.302 140.308,85.393 145.497,82.282 147.105 C 78.918 148.843,75.029 146.599,75.029 142.919 C 75.029 139.229,78.743 137.039,82.134 138.729 M67.846 146.139 C 71.585 148.047,70.467 153.636,66.251 154.111 C 62.733 154.507,60.385 150.433,62.387 147.408 C 63.420 145.846,66.067 145.231,67.846 146.139 M54.698 150.433 C 57.717 151.949,56.581 156.755,53.203 156.756 C 51.241 156.757,49.946 155.425,49.946 153.405 C 49.946 150.784,52.375 149.265,54.698 150.433 M28.091 152.674 C 32.970 155.112,32.509 162.710,27.375 164.473 C 22.918 166.003,18.595 163.002,18.595 158.378 C 18.595 153.454,23.615 150.438,28.091 152.674 M159.568 181.642 C 180.404 182.884,202.726 188.665,230.057 199.899 C 239.299 203.698,247.222 207.181,265.946 215.676 C 305.277 233.520,323.984 240.908,347.459 247.868 C 357.290 250.783,377.298 255.784,379.129 255.784 C 379.791 255.784,379.681 256.382,378.254 260.555 C 369.811 285.250,357.563 306.090,339.522 326.459 L 338.827 327.243 338.819 322.973 L 338.811 318.703 317.189 318.703 L 295.568 318.703 295.568 313.838 L 295.568 308.973 273.946 308.973 L 252.324 308.973 252.324 297.514 L 252.324 286.054 230.595 286.054 L 208.865 286.054 208.865 269.405 L 208.865 252.757 187.243 252.757 L 165.622 252.757 165.622 240.649 L 165.622 228.541 142.378 228.541 L 119.135 228.541 119.135 231.243 L 119.135 233.946 97.514 233.946 L 75.892 233.946 75.892 248.973 L 75.892 264.000 54.164 264.000 L 32.437 264.000 32.380 274.541 L 32.324 285.081 31.061 282.486 C 23.456 266.865,17.867 249.633,14.933 232.757 C 14.365 229.493,13.619 224.578,13.682 224.518 C 13.708 224.493,15.481 223.696,17.622 222.746 C 19.762 221.797,27.838 218.152,35.568 214.647 C 97.808 186.425,123.793 179.509,159.568 181.642 M162.378 307.978 L 162.378 384.387 159.946 383.863 C 148.396 381.372,134.553 376.856,124.084 372.164 L 122.270 371.351 122.325 301.459 L 122.379 231.568 142.379 231.568 L 162.378 231.568 162.378 307.978 M119.135 303.461 L 119.135 369.949 116.311 368.534 C 104.180 362.455,91.403 354.211,81.351 345.977 L 78.919 343.984 78.919 290.479 L 78.919 236.973 99.027 236.973 L 119.135 236.973 119.135 303.461 M205.838 321.974 L 205.838 388.164 197.243 388.045 C 192.516 387.979,187.384 387.817,185.838 387.684 C 179.470 387.136,172.741 386.276,167.041 385.284 L 165.622 385.037 165.622 320.410 L 165.622 255.784 185.730 255.784 L 205.838 255.784 205.838 321.974 M75.892 304.227 C 75.892 336.089,75.849 341.187,75.585 341.038 C 73.976 340.131,63.492 329.605,58.436 323.821 C 50.323 314.540,41.117 301.497,36.204 292.324 L 35.568 291.135 35.623 279.189 L 35.679 267.243 55.786 267.243 L 75.892 267.243 75.892 304.227 M249.081 335.540 L 249.081 381.783 245.027 382.770 C 233.800 385.503,217.659 387.884,210.324 387.891 L 208.865 387.892 208.865 338.595 L 208.865 289.297 228.973 289.297 L 249.081 289.297 249.081 335.540 M292.378 338.108 L 292.432 364.000 290.811 364.924 C 285.936 367.700,276.464 372.187,270.162 374.705 C 264.855 376.825,253.382 380.757,252.500 380.757 C 252.404 380.757,252.324 365.335,252.324 346.486 L 252.324 312.216 272.323 312.216 L 292.323 312.216 292.378 338.108 M335.784 326.135 L 335.784 330.541 331.724 334.514 C 321.114 344.895,308.051 354.970,296.595 361.608 L 295.568 362.203 295.568 341.966 L 295.568 321.730 315.676 321.730 L 335.784 321.730 335.784 326.135 " stroke="none" fill="#fcfcfc" fill-rule="evenodd"></path><path id="path1" d="M254.077 94.819 C 230.899 96.614,208.487 102.852,177.189 116.218 C 170.294 119.163,162.954 122.432,147.458 129.460 C 90.918 155.105,61.701 164.858,20.709 171.768 C 17.056 172.384,14.006 172.949,13.930 173.024 C 13.173 173.782,11.891 190.969,11.894 200.324 C 11.897 207.706,12.690 220.956,13.158 221.441 C 13.312 221.600,15.278 220.732,35.027 211.784 C 59.778 200.571,69.072 196.600,81.103 192.099 C 127.504 174.741,163.393 173.693,207.602 188.405 C 222.624 193.403,234.373 198.257,264.234 211.797 C 311.113 233.054,331.563 240.820,360.359 248.301 C 367.160 250.068,379.782 252.973,380.657 252.973 C 380.886 252.973,381.096 252.284,382.408 247.243 C 390.879 214.694,390.343 179.831,380.873 147.473 C 378.842 140.533,375.009 129.850,373.129 125.890 L 372.643 124.867 366.700 122.198 C 316.877 99.818,286.106 92.337,254.077 94.819 " stroke="none" fill="#7cb4bc" fill-rule="evenodd"></path><path id="path2" d="M145.946 181.331 C 115.537 182.055,91.334 189.361,35.568 214.647 C 27.838 218.152,19.762 221.797,17.622 222.746 C 15.481 223.696,13.708 224.493,13.682 224.518 C 13.619 224.578,14.365 229.493,14.933 232.757 C 17.867 249.633,23.456 266.865,31.061 282.486 L 32.324 285.081 32.380 274.541 L 32.437 264.000 54.164 264.000 L 75.892 264.000 75.892 248.973 L 75.892 233.946 97.514 233.946 L 119.135 233.946 119.135 231.243 L 119.135 228.541 142.378 228.541 L 165.622 228.541 165.622 240.649 L 165.622 252.757 187.243 252.757 L 208.865 252.757 208.865 269.405 L 208.865 286.054 230.595 286.054 L 252.324 286.054 252.324 297.514 L 252.324 308.973 273.946 308.973 L 295.568 308.973 295.568 313.838 L 295.568 318.703 317.189 318.703 L 338.811 318.703 338.819 322.973 L 338.827 327.243 339.522 326.459 C 357.563 306.090,369.811 285.250,378.254 260.555 C 379.681 256.382,379.791 255.784,379.129 255.784 C 377.298 255.784,357.290 250.783,347.459 247.868 C 323.984 240.908,305.277 233.520,265.946 215.676 C 237.119 202.597,224.576 197.340,211.135 192.705 C 187.363 184.507,166.369 180.844,145.946 181.331 " stroke="none" fill="#5c7ca4" fill-rule="evenodd"></path><path id="path3" d="M229.047 16.432 C 224.993 17.275,222.729 21.477,224.124 25.571 C 224.848 27.694,227.172 29.582,228.569 29.181 C 229.507 28.912,231.474 28.914,232.421 29.186 C 235.534 30.079,238.396 23.753,236.564 20.031 C 235.236 17.332,232.052 15.808,229.047 16.432 M214.701 19.229 C 209.713 20.746,209.063 28.005,213.698 30.437 C 216.326 31.816,219.982 30.992,221.565 28.664 C 224.899 23.762,220.351 17.510,214.701 19.229 M186.919 19.784 C 185.274 20.366,184.238 22.212,184.544 24.019 C 185.136 27.523,190.077 28.409,191.718 25.306 C 193.466 22.000,190.454 18.534,186.919 19.784 M201.010 21.108 C 196.846 22.387,196.359 28.735,200.271 30.731 C 203.891 32.578,207.991 30.090,207.998 26.042 C 208.004 22.312,204.695 19.976,201.010 21.108 M137.748 26.101 C 134.124 27.381,133.068 32.755,135.886 35.573 C 138.745 38.432,144.109 37.329,145.372 33.623 C 147.063 28.660,142.697 24.353,137.748 26.101 M258.061 27.194 C 254.397 29.206,254.907 35.136,258.857 36.448 C 263.333 37.935,267.291 33.555,265.320 29.297 C 264.146 26.761,260.679 25.757,258.061 27.194 M157.042 27.861 C 151.947 29.621,150.905 37.157,155.335 40.205 C 159.975 43.398,166.141 40.588,166.643 35.053 C 167.112 29.882,162.086 26.118,157.042 27.861 M228.216 29.478 C 221.877 31.565,221.245 40.470,227.229 43.409 C 230.810 45.168,235.490 43.593,237.239 40.040 C 240.152 34.123,234.435 27.430,228.216 29.478 M173.038 29.855 C 170.697 31.014,170.685 34.835,173.020 35.894 C 174.939 36.766,176.996 36.170,177.741 34.528 C 179.215 31.281,176.203 28.289,173.038 29.855 M242.742 30.151 C 240.598 30.916,239.626 33.403,240.625 35.568 C 242.419 39.455,248.207 38.134,248.207 33.838 C 248.207 31.617,246.443 29.857,244.216 29.857 C 243.859 29.857,243.196 29.989,242.742 30.151 M125.351 31.227 C 121.125 32.736,120.810 38.783,124.856 40.762 C 127.403 42.008,130.484 41.095,131.720 38.729 C 134.025 34.316,129.996 29.570,125.351 31.227 M213.344 31.682 C 206.509 34.191,208.166 44.403,215.459 44.719 C 219.822 44.908,222.378 42.446,222.378 38.054 C 222.378 33.078,217.984 29.979,213.344 31.682 M270.947 35.476 C 263.562 36.927,264.252 47.692,271.775 48.374 C 274.470 48.618,276.884 47.274,278.067 44.872 C 280.509 39.911,276.345 34.416,270.947 35.476 M188.470 38.574 C 182.493 40.217,183.296 49.007,189.465 49.472 C 192.998 49.738,195.486 47.490,195.486 44.032 C 195.486 40.139,192.167 37.557,188.470 38.574 M254.595 39.782 C 247.808 40.990,248.673 51.051,255.568 51.093 C 262.813 51.138,263.514 40.607,256.324 39.734 C 255.849 39.676,255.070 39.698,254.595 39.782 M170.199 42.410 C 167.015 43.985,167.297 49.077,170.645 50.476 C 174.656 52.152,178.310 48.005,176.267 44.095 C 175.193 42.039,172.474 41.284,170.199 42.410 M205.473 42.982 C 197.939 45.680,199.704 56.562,207.671 56.534 C 216.658 56.503,217.031 43.315,208.063 42.684 C 206.972 42.607,206.307 42.684,205.473 42.982 M280.757 42.883 C 279.294 43.364,278.939 43.650,278.353 44.819 C 278.041 45.439,277.356 46.351,276.829 46.846 C 274.235 49.286,275.814 54.995,279.587 56.822 C 283.482 58.708,288.164 57.168,289.920 53.424 C 292.706 47.483,286.940 40.849,280.757 42.883 M139.866 43.531 C 132.289 46.339,134.536 57.460,142.595 57.031 C 151.451 56.559,151.349 43.567,142.486 43.298 C 141.348 43.263,140.351 43.352,139.866 43.531 M294.811 44.630 C 291.718 46.004,291.824 50.892,294.974 52.208 C 299.002 53.891,302.620 49.365,300.088 45.810 C 299.135 44.471,296.495 43.881,294.811 44.630 M240.895 46.337 C 235.936 48.220,236.791 55.740,242.053 56.529 C 247.803 57.391,250.461 49.218,245.302 46.540 C 244.453 46.099,241.838 45.979,240.895 46.337 M110.096 48.398 C 105.892 49.895,105.325 55.930,109.191 58.034 C 112.951 60.081,117.206 57.688,117.230 53.513 C 117.252 49.608,113.750 47.097,110.096 48.398 M123.347 49.025 C 120.500 50.044,118.810 52.815,119.240 55.756 C 120.392 63.615,131.762 62.855,131.757 54.919 C 131.754 50.495,127.524 47.530,123.347 49.025 M219.884 49.568 C 218.772 50.128,217.946 51.488,217.946 52.757 C 217.946 56.459,223.129 57.758,224.826 54.482 C 226.087 52.046,224.328 49.081,221.622 49.081 C 221.196 49.081,220.414 49.300,219.884 49.568 M266.919 51.027 C 259.055 53.478,260.844 65.184,269.081 65.175 C 278.477 65.165,278.794 51.179,269.405 50.883 C 268.395 50.851,267.276 50.916,266.919 51.027 M152.738 53.064 C 150.703 53.950,150.070 57.180,151.592 58.914 C 154.091 61.759,158.498 59.940,158.226 56.176 C 158.029 53.459,155.338 51.932,152.738 53.064 M90.037 53.815 C 88.454 54.534,87.634 56.106,87.857 57.991 C 88.462 63.096,95.991 62.655,95.991 57.514 C 95.991 54.407,92.926 52.503,90.037 53.815 M303.962 53.820 C 297.736 55.840,299.092 64.865,305.622 64.865 C 312.955 64.865,313.289 54.070,305.967 53.704 C 305.183 53.665,304.280 53.717,303.962 53.820 M249.838 56.505 C 242.601 58.909,244.199 69.297,251.805 69.293 C 260.160 69.287,260.550 56.864,252.213 56.317 C 251.273 56.255,250.376 56.326,249.838 56.505 M186.232 57.641 C 180.998 59.555,180.648 67.519,185.690 69.990 C 190.440 72.318,195.705 68.831,195.411 63.552 C 195.154 58.958,190.619 56.037,186.232 57.641 M137.669 57.966 C 131.164 59.497,130.043 69.074,136.014 72.113 C 141.016 74.659,146.840 71.480,147.197 66.009 C 147.552 60.583,142.972 56.717,137.669 57.966 M172.973 57.923 C 166.130 59.402,167.267 69.528,174.270 69.474 C 181.669 69.416,182.156 58.597,174.793 57.865 C 174.208 57.807,173.389 57.833,172.973 57.923 M102.648 59.984 C 100.496 60.752,99.180 62.755,99.180 65.261 C 99.180 72.421,109.686 72.994,110.420 65.875 C 110.860 61.612,106.771 58.513,102.648 59.984 M282.863 60.781 C 279.472 62.459,279.993 68.170,283.628 69.180 C 288.160 70.438,291.504 65.618,288.701 61.868 C 287.575 60.361,284.767 59.838,282.863 60.781 M160.256 65.060 C 155.537 66.690,155.502 73.688,160.204 75.347 C 162.887 76.294,165.819 75.208,167.005 72.828 C 169.299 68.224,165.097 63.388,160.256 65.060 M230.735 65.531 C 226.180 67.808,226.783 74.992,231.651 76.437 C 236.852 77.982,241.199 72.863,238.819 67.998 C 237.408 65.113,233.785 64.008,230.735 65.531 M123.186 65.303 C 119.269 66.292,117.097 69.901,118.595 72.932 C 119.184 74.123,119.388 74.830,119.438 75.848 C 119.632 79.827,126.838 80.931,130.263 77.506 C 135.383 72.387,130.241 63.521,123.186 65.303 M215.892 65.271 C 210.492 66.685,211.500 74.585,217.081 74.585 C 223.078 74.585,223.524 65.694,217.553 65.188 C 216.996 65.140,216.249 65.178,215.892 65.271 M91.002 65.582 C 85.367 67.692,87.197 76.054,93.200 75.625 C 99.659 75.163,99.703 65.740,93.247 65.373 C 92.346 65.322,91.484 65.402,91.002 65.582 M320.293 65.729 C 314.156 67.739,313.712 76.814,319.621 79.466 C 323.297 81.116,327.623 79.650,329.333 76.176 C 332.323 70.102,326.718 63.624,320.293 65.729 M296.286 66.041 C 289.744 68.087,291.322 77.714,298.192 77.672 C 301.708 77.651,304.002 75.328,303.998 71.795 C 303.992 67.534,300.307 64.784,296.286 66.041 M201.313 66.325 C 198.178 67.923,199.444 72.650,203.005 72.648 C 205.165 72.646,206.361 71.433,206.341 69.264 C 206.316 66.631,203.705 65.105,201.313 66.325 M253.622 69.330 C 253.086 69.477,252.114 69.587,251.459 69.576 C 248.102 69.516,245.319 73.625,246.045 77.568 C 247.553 85.752,259.201 85.743,260.534 77.557 C 261.281 72.966,257.365 68.305,253.622 69.330 M179.618 69.424 C 173.442 70.880,172.431 79.627,178.116 82.425 C 180.974 83.831,184.500 83.251,186.492 81.047 C 191.160 75.879,186.399 67.827,179.618 69.424 M110.687 69.688 C 103.281 71.781,104.397 82.499,112.071 82.974 C 117.270 83.295,120.752 78.144,118.591 73.328 C 117.281 70.409,113.804 68.808,110.687 69.688 M77.632 70.552 C 75.253 71.311,74.150 74.356,75.334 76.898 C 76.974 80.421,82.494 79.941,83.587 76.182 C 84.682 72.415,81.430 69.342,77.632 70.552 M274.270 73.275 C 270.432 75.052,270.761 81.257,274.751 82.365 C 278.869 83.509,282.222 80.196,281.084 76.108 C 280.359 73.500,276.894 72.060,274.270 73.275 M307.431 74.933 C 299.271 77.446,301.981 89.995,310.465 88.978 C 319.452 87.900,318.578 74.485,309.528 74.610 C 308.926 74.618,307.982 74.763,307.431 74.933 M140.961 76.645 C 138.552 77.419,137.199 80.232,137.981 82.841 C 139.154 86.757,145.089 87.286,146.938 83.639 C 148.998 79.573,145.304 75.251,140.961 76.645 M167.639 77.168 C 164.478 77.980,162.334 81.113,162.678 84.417 C 163.458 91.916,174.044 92.686,175.915 85.381 C 177.180 80.443,172.597 75.894,167.639 77.168 M154.202 77.842 C 150.511 78.609,148.585 82.948,150.371 86.473 C 152.470 90.613,158.774 90.602,160.847 86.454 C 163.186 81.774,159.330 76.777,154.202 77.842 M334.322 78.559 C 331.004 79.762,330.003 84.504,332.574 86.840 C 335.263 89.283,339.881 88.036,340.738 84.635 C 341.755 80.597,338.141 77.174,334.322 78.559 M292.828 79.142 C 287.755 81.150,287.549 88.749,292.501 91.181 C 299.003 94.373,305.151 86.295,300.461 80.722 C 298.936 78.910,295.310 78.160,292.828 79.142 M261.056 81.062 C 257.621 82.622,257.952 88.172,261.544 89.248 C 264.704 90.195,267.450 88.258,267.450 85.081 C 267.450 81.754,264.129 79.667,261.056 81.062 M238.963 81.264 C 234.127 82.979,232.512 89.852,236.130 93.318 L 236.743 93.906 239.615 93.436 C 241.194 93.177,243.654 92.823,245.081 92.649 C 248.003 92.292,248.030 92.274,248.576 90.396 C 250.287 84.512,244.719 79.223,238.963 81.264 M225.405 81.507 C 221.838 82.924,220.294 87.221,222.073 90.781 C 224.903 96.444,234.158 94.871,233.985 88.757 C 233.958 87.805,234.027 86.714,234.140 86.332 C 235.056 83.210,229.227 79.989,225.405 81.507 M212.236 81.854 C 208.212 83.328,207.399 89.484,210.911 91.882 C 215.007 94.679,220.099 92.109,220.099 87.243 C 220.099 83.034,216.238 80.387,212.236 81.854 M106.796 83.106 C 100.319 84.853,99.457 93.847,105.483 96.806 C 107.218 97.658,110.020 97.675,111.794 96.843 C 119.853 93.063,115.387 80.790,106.796 83.106 M197.381 83.325 C 195.215 84.099,194.286 85.589,194.412 88.084 C 194.722 94.227,203.676 93.880,203.676 87.725 C 203.676 84.410,200.519 82.204,197.381 83.325 M87.600 83.859 C 80.645 86.344,82.809 96.469,90.184 95.947 C 97.813 95.407,97.727 84.152,90.089 83.551 C 89.112 83.474,88.448 83.556,87.600 83.859 M321.517 85.243 C 318.703 86.747,318.691 91.419,321.497 92.903 C 325.585 95.065,329.818 90.754,327.557 86.730 C 326.500 84.850,323.591 84.133,321.517 85.243 M184.604 86.256 C 180.619 87.539,181.620 93.622,185.815 93.622 C 190.508 93.622,190.916 86.582,186.247 86.162 C 185.665 86.110,184.926 86.152,184.604 86.256 M129.371 87.435 C 125.402 88.723,124.844 94.384,128.501 96.251 C 131.929 98.001,135.568 95.811,135.568 91.998 C 135.568 88.626,132.549 86.403,129.371 87.435 M63.228 89.479 C 59.432 91.252,59.783 97.233,63.762 98.565 C 68.098 100.017,71.894 95.582,69.799 91.511 C 68.721 89.417,65.496 88.420,63.228 89.479 M144.432 90.568 C 140.765 91.360,138.744 95.135,140.006 98.838 C 141.740 103.926,149.720 103.926,151.453 98.838 C 153.067 94.103,149.193 89.541,144.432 90.568 M168.541 91.750 C 163.519 93.416,161.514 98.972,164.344 103.382 C 167.111 107.695,174.294 107.695,177.062 103.382 C 180.887 97.421,175.130 89.563,168.541 91.750 M330.687 92.839 C 326.123 94.964,326.728 102.062,331.594 103.476 C 335.562 104.630,339.037 102.005,339.022 97.865 C 339.007 93.641,334.632 91.002,330.687 92.839 M191.566 95.986 C 186.470 97.536,186.698 105.019,191.878 106.178 C 194.026 106.659,197.153 105.150,197.969 103.240 C 199.741 99.094,195.847 94.683,191.566 95.986 M342.378 98.254 C 339.370 99.506,337.738 102.789,338.440 106.177 L 338.599 106.948 343.371 108.853 C 348.705 110.983,348.415 110.957,349.986 109.432 C 355.294 104.277,349.249 95.395,342.378 98.254 M73.665 98.461 C 66.817 101.012,68.817 111.091,76.085 110.656 C 84.043 110.181,84.087 98.588,76.133 98.229 C 75.073 98.182,74.194 98.264,73.665 98.461 M126.912 100.440 C 124.513 101.180,123.147 103.329,123.276 106.161 C 123.601 113.301,134.277 113.094,134.362 105.946 C 134.410 101.848,130.859 99.224,126.912 100.440 M155.536 100.971 C 147.956 102.563,147.655 113.389,155.135 115.382 C 159.992 116.677,164.456 113.178,164.413 108.108 C 164.374 103.466,160.083 100.016,155.536 100.971 M100.000 101.553 C 98.124 102.070,97.193 104.336,98.108 106.158 C 99.227 108.385,102.698 108.507,103.795 106.357 C 105.157 103.686,102.852 100.767,100.000 101.553 M86.544 103.327 C 78.591 106.290,81.187 118.245,89.636 117.567 C 98.783 116.833,98.572 103.490,89.405 102.999 C 88.053 102.926,87.429 102.998,86.544 103.327 M45.514 104.613 C 41.251 106.637,42.582 113.213,47.307 113.472 C 51.114 113.680,53.430 110.168,51.798 106.663 C 50.790 104.497,47.808 103.524,45.514 104.613 M112.177 107.967 C 109.921 108.598,108.639 110.385,108.666 112.865 C 108.735 119.293,118.304 119.696,118.667 113.287 C 118.883 109.450,115.829 106.946,112.177 107.967 M73.459 111.370 C 69.271 112.357,66.983 116.802,68.538 120.927 C 70.463 126.033,78.069 126.762,80.999 122.121 C 84.383 116.760,79.589 109.925,73.459 111.370 M59.861 112.084 C 53.141 114.485,54.726 124.210,61.838 124.212 C 65.864 124.213,67.843 122.216,67.908 118.088 C 67.981 113.460,64.105 110.568,59.861 112.084 M138.703 112.937 C 132.556 114.962,132.050 123.635,137.919 126.349 C 140.529 127.555,144.704 126.655,146.393 124.522 C 150.869 118.871,145.454 110.713,138.703 112.937 M99.351 116.743 C 93.842 118.084,95.004 126.359,100.653 126.012 C 103.383 125.844,104.910 124.325,105.045 121.642 C 105.218 118.217,102.589 115.955,99.351 116.743 M38.166 118.616 C 35.374 119.638,34.149 123.243,35.631 126.080 C 37.636 129.917,43.915 129.357,45.151 125.231 C 46.476 120.809,42.490 117.033,38.166 118.616 M123.449 120.930 C 120.311 121.818,118.574 124.338,118.747 127.751 C 119.192 136.540,132.058 136.151,131.977 127.351 C 131.935 122.736,127.874 119.678,123.449 120.930 M85.603 122.140 C 82.000 123.313,82.128 128.709,85.784 129.743 C 89.289 130.733,92.130 127.055,90.333 123.857 C 89.509 122.391,87.297 121.588,85.603 122.140 M64.865 125.391 C 58.681 127.279,57.861 136.212,63.616 138.998 C 66.578 140.432,70.577 139.749,72.523 137.476 C 77.379 131.802,71.947 123.229,64.865 125.391 M108.649 126.780 C 102.744 129.542,104.731 138.595,111.243 138.595 C 114.899 138.595,117.510 136.025,117.495 132.440 C 117.476 127.783,112.843 124.818,108.649 126.780 M36.140 132.306 C 29.704 134.528,31.328 144.007,38.143 143.998 C 41.769 143.993,44.101 141.614,44.106 137.917 C 44.111 133.647,40.211 130.900,36.140 132.306 M52.432 132.411 C 44.589 134.891,46.734 146.571,54.949 146.112 C 59.898 145.836,63.359 140.461,60.894 136.877 C 60.464 136.253,59.995 135.349,59.851 134.868 C 59.226 132.781,55.336 131.492,52.432 132.411 M98.504 134.693 C 93.425 136.739,93.764 144.565,98.998 146.086 L 100.169 146.427 102.895 145.376 L 105.622 144.324 106.261 143.045 C 108.776 138.010,103.737 132.585,98.504 134.693 M77.728 138.565 C 72.936 140.742,74.892 148.019,80.166 147.637 C 86.293 147.194,85.939 138.143,79.795 138.167 C 79.105 138.170,78.226 138.339,77.728 138.565 M63.852 146.150 C 61.358 147.282,60.890 151.176,63.023 153.048 C 65.760 155.452,69.784 153.796,70.014 150.171 C 70.231 146.777,67.047 144.699,63.852 146.150 M51.561 150.486 C 49.298 151.606,49.308 155.231,51.577 156.329 C 53.980 157.492,56.432 156.015,56.432 153.405 C 56.432 150.793,53.948 149.304,51.561 150.486 M22.492 152.375 C 17.428 154.163,17.311 162.170,22.318 164.324 C 28.656 167.052,34.186 159.877,30.089 154.242 C 28.662 152.279,25.186 151.425,22.492 152.375 " stroke="none" fill="#acdcd4" fill-rule="evenodd"></path><path id="path4" d="M191.107 0.230 C 71.228 5.679,-17.311 115.323,2.815 233.405 C 18.175 323.530,90.388 390.327,182.378 399.502 C 188.118 400.075,212.106 400.076,217.838 399.503 C 315.884 389.716,389.716 315.884,399.503 217.838 C 400.076 212.106,400.075 188.118,399.502 182.378 C 388.744 74.517,298.184 -4.637,191.107 0.230 M211.243 7.143 C 338.166 15.080,423.136 139.661,383.851 260.216 C 349.973 364.179,235.356 419.564,133.066 381.400 C 25.248 341.172,-23.963 217.202,27.027 114.270 C 61.304 45.076,134.759 2.360,211.243 7.143 M122.325 301.459 L 122.270 371.351 124.084 372.164 C 134.553 376.856,148.396 381.372,159.946 383.863 L 162.378 384.387 162.378 307.978 L 162.378 231.568 142.379 231.568 L 122.379 231.568 122.325 301.459 M78.919 290.479 L 78.919 343.984 81.351 345.977 C 91.403 354.211,104.180 362.455,116.311 368.534 L 119.135 369.949 119.135 303.461 L 119.135 236.973 99.027 236.973 L 78.919 236.973 78.919 290.479 M165.622 320.410 L 165.622 385.037 167.041 385.284 C 172.741 386.276,179.470 387.136,185.838 387.684 C 187.384 387.817,192.516 387.979,197.243 388.045 L 205.838 388.164 205.838 321.974 L 205.838 255.784 185.730 255.784 L 165.622 255.784 165.622 320.410 M35.623 279.189 L 35.568 291.135 36.204 292.324 C 41.117 301.497,50.323 314.540,58.436 323.821 C 63.492 329.605,73.976 340.131,75.585 341.038 C 75.849 341.187,75.892 336.089,75.892 304.227 L 75.892 267.243 55.786 267.243 L 35.679 267.243 35.623 279.189 M208.865 338.595 L 208.865 387.892 210.324 387.891 C 217.659 387.884,233.800 385.503,245.027 382.770 L 249.081 381.783 249.081 335.540 L 249.081 289.297 228.973 289.297 L 208.865 289.297 208.865 338.595 M252.324 346.486 C 252.324 365.335,252.404 380.757,252.500 380.757 C 253.382 380.757,264.855 376.825,270.162 374.705 C 276.464 372.187,285.936 367.700,290.811 364.924 L 292.432 364.000 292.378 338.108 L 292.323 312.216 272.323 312.216 L 252.324 312.216 252.324 346.486 M295.568 341.966 L 295.568 362.203 296.595 361.608 C 308.051 354.970,321.114 344.895,331.724 334.514 L 335.784 330.541 335.784 326.135 L 335.784 321.730 315.676 321.730 L 295.568 321.730 295.568 341.966 " stroke="none" fill="#444c74" fill-rule="evenodd"></path></g></svg>